Coordinates
version=1
nRows=17
nColumns=40
inDegrees=yes

Units are S.I. units (second, meters, Newtons, ...)
Angles are in degrees.

endheader
time	pelvis_tilt	pelvis_list	pelvis_rotation	pelvis_tx	pelvis_ty	pelvis_tz	hip_flexion_r	hip_adduction_r	hip_rotation_r	knee_angle_r	knee_angle_r_beta	ankle_angle_r	subtalar_angle_r	mtp_angle_r	hip_flexion_l	hip_adduction_l	hip_rotation_l	knee_angle_l	knee_angle_l_beta	ankle_angle_l	subtalar_angle_l	mtp_angle_l	lumbar_extension	lumbar_bending	lumbar_rotation	arm_flex_r	arm_add_r	arm_rot_r	elbow_flex_r	pro_sup_r	wrist_flex_r	wrist_dev_r	arm_flex_l	arm_add_l	arm_rot_l	elbow_flex_l	pro_sup_l	wrist_flex_l	wrist_dev_l
      7.45000000	     -2.22243849	     -6.76600738	     -1.43175990	      1.05992459	      0.93745275	      0.40627588	     28.13501598	     -4.14621469	     -6.87270228	     44.43312709	     44.43312709	      0.44780843	    -10.95287480	     -0.76795693	     12.00785349	     -6.94717728	     -8.99349463	     21.90898054	     21.90898054	     14.08555292	    -11.33357640	      0.46138884	    -11.52801820	      6.65553260	      0.37149517	     -2.11493871	    -12.76332087	     -5.09953648	     25.89182052	     46.55181694	      0.00000000	      0.00000000	     13.58389641	    -19.19641336	     -2.22102607	     63.76031603	     46.62658194	      0.00000000	      0.00000000
      7.46400000	     -2.33625959	     -6.78001688	     -1.83283681	      1.05861726	      0.93752757	      0.40619263	     27.98014032	     -3.90318164	     -7.45670772	     40.24015282	     40.24015282	      0.49107281	     -9.32647023	     -1.00440236	     11.56712718	     -6.99888034	     -9.49700439	     21.59629623	     21.59629623	     14.24519227	    -11.03288821	      0.20366454	    -11.63479753	      6.64085462	      0.37192947	     -3.49745394	    -12.73502686	     -5.53069285	     25.78782699	     46.57563601	      0.00000000	      0.00000000	     14.16360181	    -19.41750659	     -2.73293818	     65.27760344	     46.69884512	      0.00000000	      0.00000000
      7.47800000	     -2.71715255	     -6.76859291	     -2.25248408	      1.05732077	      0.93711789	      0.40641225	     28.02758227	     -3.56208331	     -7.97625398	     35.88750653	     35.88750653	      0.50098389	     -7.68137506	     -0.83353109	     11.40516944	     -7.02126432	     -9.94862877	     21.24453399	     21.24453399	     14.40456723	    -10.86730638	      0.04418228	    -11.28870635	      6.57297475	      0.21561708	     -4.67870115	    -12.56039927	     -5.74545406	     25.63885967	     46.58630734	      0.00000000	      0.00000000	     14.71536716	    -19.76966767	     -3.14119638	     66.17539647	     46.74931009	      0.00000000	      0.00000000
      7.49200000	     -2.82005883	     -6.70764073	     -2.62681183	      1.05626844	      0.93706679	      0.40649764	     27.49354887	     -3.31301071	     -8.79198671	     31.11604195	     31.11604195	      0.42086360	     -5.26360799	     -0.82354213	     10.92256804	     -6.99025078	    -10.49924343	     20.89595941	     20.89595941	     14.54889860	    -10.54684884	     -0.21489457	    -11.31131635	      6.53729915	      0.27072899	     -5.85264593	    -12.57189255	     -6.08702160	     25.60462521	     46.60214316	      0.00000000	      0.00000000	     15.26150027	    -19.84375416	     -3.68507419	     67.39370025	     46.81667867	      0.00000000	      0.00000000
      7.50600000	     -2.91319180	     -6.46977973	     -3.05825517	      1.05548823	      0.93670045	      0.40678261	     26.87375153	     -3.23252217	     -9.81879467	     26.31676530	     26.31676530	     -0.23065426	     -2.15150160	     -2.54706962	     10.35797940	     -6.80504963	    -11.30843355	     20.46436344	     20.46436344	     14.60652185	     -9.95507187	     -1.15620543	    -11.35592038	      6.21973983	      0.12956130	     -7.15401533	    -12.35683950	     -7.66333614	     26.69454642	     46.65582776	      0.00000000	      0.00000000	     15.35017441	    -19.74598912	     -5.41093297	     69.52969168	     47.00706313	      0.00000000	      0.00000000
      7.52000000	     -3.10766258	     -6.32631391	     -3.46019949	      1.05473397	      0.93627081	      0.40733977	     26.25554772	     -2.79810930	    -10.38358379	     21.50636102	     21.50636102	     -0.54582469	      0.25748758	     -1.71243518	      9.91635678	     -6.66413448	    -11.73690936	     20.03568377	     20.03568377	     14.78461820	     -9.83659993	     -1.33598342	    -11.17481124	      6.04322019	      0.13798781	     -7.99343141	    -12.27307627	     -7.84160458	     26.47566558	     46.66837060	      0.00000000	      0.00000000	     15.92143381	    -19.85304606	     -5.72310435	     70.10385647	     47.04738027	      0.00000000	      0.00000000
      7.53400000	     -3.10809208	     -6.05191650	     -3.85082791	      1.05429735	      0.93595337	      0.40795283	     25.43858777	     -2.56913476	    -11.28085253	     17.07711810	     17.07711810	     -0.76553545	      3.48040583	     -0.59744846	      9.20116207	     -6.38198556	    -12.35440381	     19.52241371	     19.52241371	     14.93306431	     -9.48575633	     -1.71282402	    -11.18847588	      5.68529572	      0.27383312	     -8.76900347	    -12.15928596	     -8.08944145	     26.37991957	     46.68049979	      0.00000000	      0.00000000	     16.54536722	    -19.86002571	     -6.23658598	     70.77630993	     47.10750500	      0.00000000	      0.00000000
      7.54800000	     -3.25086876	     -5.72043647	     -4.23395080	      1.05396507	      0.93527622	      0.40877912	     24.90954966	     -2.34086174	    -11.99371688	     13.27885745	     13.27885745	     -1.05209359	      6.11460605	      0.83138461	      8.62907031	     -6.03884090	    -12.90809369	     18.97423734	     18.97423734	     15.08022061	     -9.16702920	     -2.07390168	    -10.95447277	      5.25440193	      0.31606042	     -9.40268028	    -11.96375867	     -8.24438378	     26.34344267	     46.68464692	      0.00000000	      0.00000000	     17.00840867	    -19.80921735	     -6.64835392	     71.28731970	     47.15414074	      0.00000000	      0.00000000
      7.56200000	     -3.20471118	     -5.40308848	     -4.59865299	      1.05383296	      0.93489821	      0.40956211	     24.54047984	     -2.30762472	    -13.30589172	     10.85787578	     10.85787578	      0.47344514	      9.57698577	      6.73251318	      7.74086822	     -5.66276655	    -13.51299998	     18.18220344	     18.18220344	     14.63887658	     -9.01172222	     -3.81397287	    -10.96840894	      4.89159934	      0.32771119	    -10.03834062	    -11.82043631	     -9.15735454	     26.96199585	     46.69655479	      0.00000000	      0.00000000	     17.39134467	    -19.48954730	     -8.10638908	     71.89419684	     47.31228432	      0.00000000	      0.00000000
      7.57600000	     -3.15899947	     -5.08151621	     -4.93480478	      1.05392804	      0.93444367	      0.41065282	     24.06713645	     -2.12716648	    -13.84083762	      8.67013633	      8.67013633	      0.29569741	     11.08047250	      7.80116948	      6.88343748	     -5.28477290	    -14.02243360	     17.50640672	     17.50640672	     14.79800276	     -8.67260200	     -4.02808112	    -10.87229972	      4.48664993	      0.42907625	    -10.37284385	    -11.70933389	     -9.17335016	     26.82559802	     46.69532797	      0.00000000	      0.00000000	     17.82368246	    -19.48263284	     -8.29789898	     72.18916054	     47.34044443	      0.00000000	      0.00000000
      7.59000000	     -3.09530022	     -4.80506081	     -5.24971080	      1.05416872	      0.93406784	      0.41186631	     23.74688482	     -2.00548248	    -14.45215309	      7.48394455	      7.48394455	      0.38206643	     12.21629709	      8.83999431	      5.96629738	     -4.95337795	    -14.54851397	     16.76125508	     16.76125508	     14.89185330	     -8.22789028	     -4.41713548	    -10.77961042	      4.09505886	      0.50029385	    -10.57670313	    -11.62136596	     -9.16826680	     26.83667772	     46.68657200	      0.00000000	      0.00000000	     18.15414587	    -19.37661913	     -8.65392248	     72.35203474	     47.37664739	      0.00000000	      0.00000000
      7.60400000	     -3.17577872	     -4.64539510	     -5.46173040	      1.05429722	      0.93326456	      0.41312012	     23.81278310	     -1.86594586	    -14.75006998	      7.38554200	      7.38554200	      0.44990973	     12.08983261	      8.86767219	      5.57568251	     -4.81587356	    -14.73735683	     16.70216330	     16.70216330	     15.21086234	     -8.33338742	     -4.53165395	    -10.48438278	      3.95274293	      0.43929103	    -10.58336056	    -11.58969908	     -9.16599026	     26.84928103	     46.68541464	      0.00000000	      0.00000000	     18.26997223	    -19.38477148	     -8.68340414	     72.39528214	     47.38052011	      0.00000000	      0.00000000
      7.61800000	     -3.03036769	     -4.28282812	     -5.74806184	      1.05500827	      0.93321568	      0.41449470	     23.47960627	     -1.98398948	    -15.00938464	      7.60453397	      7.60453397	      0.59739012	     12.25435329	      8.93392788	      4.27414134	     -4.30955282	    -15.39512055	     15.39426797	     15.39426797	     15.18474451	     -7.41862833	     -4.79382562	    -10.38694858	      3.48035054	      0.48142165	    -10.54948017	    -11.46650401	     -9.11134529	     26.99971250	     46.67100950	      0.00000000	      0.00000000	     18.47017171	    -19.22923675	     -9.13556784	     72.36878231	     47.41657683	      0.00000000	      0.00000000
      7.63200000	     -2.88289061	     -4.13748731	     -5.91985563	      1.05575500	      0.93288304	      0.41595686	     23.23861337	     -1.99861740	    -15.14202698	      8.59968517	      8.59968517	      0.82045351	     11.75866510	      8.46476124	      3.32163630	     -4.11976461	    -15.76632650	     14.78208502	     14.78208502	     15.30895780	     -6.98279466	     -5.17739800	    -10.28489907	      3.31518307	      0.42433951	    -10.39784528	    -11.49016173	     -9.05899408	     27.22094696	     46.65522642	      0.00000000	      0.00000000	     18.50272193	    -19.05732160	     -9.55463563	     72.21057199	     47.44656043	      0.00000000	      0.00000000
      7.64600000	     -2.78188923	     -3.93936528	     -6.03159090	      1.05672204	      0.93225579	      0.41752806	     22.96200389	     -2.05522719	    -14.75760781	      9.77004715	      9.77004715	      0.24030275	     10.47834671	      5.43694845	      2.38906141	     -3.88918761	    -16.19232429	     14.07206170	     14.07206170	     15.00371601	     -6.55373146	     -6.69104717	    -10.07705761	      3.10615184	      0.19353533	    -10.33056406	    -11.56831888	     -8.47419396	     28.11447533	     46.54946744	      0.00000000	      0.00000000	     18.38809710	    -18.48500124	    -11.14437912	     71.88519806	     47.56880731	      0.00000000	      0.00000000
      7.66000000	     -2.55478190	     -3.94881524	     -5.98629609	      1.05791159	      0.93180491	      0.41905084	     22.45289609	     -2.03404109	    -14.67274987	     11.20735085	     11.20735085	      0.59546388	      9.72218942	      4.91733305	      1.49519019	     -3.89142473	    -16.21593059	     13.77680360	     13.77680360	     15.32630272	     -6.36255080	     -6.74942393	    -10.00805148	      3.14365974	      0.04788615	     -9.96107857	    -11.59284705	     -8.43432399	     28.31735401	     46.53954145	      0.00000000	      0.00000000	     18.15955012	    -18.27950921	    -11.05365805	     71.69142265	     47.55860668	      0.00000000	      0.00000000
      7.67400000	     -2.44397528	     -3.54042513	     -6.02220563	      1.05917123	      0.93092879	      0.42072048	     22.41877159	     -2.41400025	    -13.71288757	     13.26140411	     13.26140411	      1.02491088	      8.13974392	      3.82317777	      0.61587794	     -3.42884993	    -16.49864982	     13.20291877	     13.20291877	     15.59199822	     -5.74847915	     -6.77145954	     -9.73356978	      2.70287712	     -0.20619995	     -9.61518978	    -11.62724332	     -8.33223898	     28.76334402	     46.51154609	      0.00000000	      0.00000000	     17.96326414	    -18.40563241	    -11.25931818	     71.24950158	     47.56685823	      0.00000000	      0.00000000
